# xmcd CD database file
#
# Track frame offsets:
#	150
#	24764
#	52096
#	80561
#	106855
#	127734
#	157699
#	182799
#	209142
#
# Disc length: 3157 seconds
#
# Revision: 1
# Processed by: cddbd v1.5.2PL0 Copyright (c) Steve Scherf et al.
# Submitted via: CDex 1.51
#
DISCID=6b0c5309
DTITLE=Spring Island - Get Movin'!
DYEAR=2010
DGENRE=Jazz
TTITLE0=Get Movin'!
TTITLE1=Take It Easy
TTITLE2=Open Dream
TTITLE3=Wave
TTITLE4=Silent War
TTITLE5=Shiny Garden
TTITLE6=Central Park
TTITLE7=Rain Dance
TTITLE8=Center Of My Heart
EXTD=YEAR: 2010
EXTT0=
EXTT1=
EXTT2=
EXTT3=
EXTT4=
EXTT5=
EXTT6=
EXTT7=
EXTT8=
PLAYORDER=
